<?xml version="1.0" encoding="utf-8"?>
<!-- Generator: Adobe Illustrator 27.2.0, SVG Export Plug-In . SVG Version: 6.00 Build 0)  -->
<svg version="1.1" id="STANDARD" xmlns="http://www.w3.org/2000/svg" xmlns:xlink="http://www.w3.org/1999/xlink" x="0px" y="0px"
	 viewBox="0 0 966.59 1000" style="enable-background:new 0 0 966.59 1000;" xml:space="preserve">
<path d="M505.37,70.98H388.06V0l117.32,0.01V70.98z M505.42,123.64H388.06v67.77h117.36V123.64z M264.59,675.17v322.29h108.59
	V675.17H264.59z M143.92,914.65 M789.66,337.51h-79.19v322.93h79.19V337.51z M877.34,499.9l28.61-162.39h-80.84L800.16,503.2
	l33.32,157.24h86.42L877.34,499.9z M655.55,491.93c29.3-5.53,44.4-29.55,44.4-78.38s-33.05-76-66.73-76H525.6v322.93h75.81V407.92
	l14.73,0.02v252.54h79.59V552.01C695.73,525.95,689.43,504.72,655.55,491.93z M56.3,552.13l44.03-131.41L80.59,337.5H0L56.3,552.13z
	 M142.21,337.5L34.29,660.37h79.74L225.78,337.5H142.21z M616.12,675.01V779.6h79.56V675.01H616.12z M601.38,997.46V674.97H388.06
	v104.65h98.77v217.84H601.38z M768.5,879.6l36.65-151.54l-14.59-53.05h-80.32L768.5,879.6z M832.09,675.01L753.9,997.49h83.73
	l82.01-322.48H832.09z M388.05,251.78v71.17h133.42v-71.17H388.05z M136.74,804.53h114.51v-21.77
	c0-58.32-48.68-108.66-114.51-108.66V804.53z M136.74,857.43v81.46h-14.73V674.22c-73.23,0-120.84,50.84-120.84,108.55V889.1
	c0,60.08,47.04,110.9,127.79,110.9c69.12,0,122.3-50.82,122.3-110.9v-31.67H136.74z M373.22,322.95V0L243.29,0.02v322.93
	L373.22,322.95z M789.65,517.3 M373.15,568.72c-6.67,2-13.85,3.08-21.43,3.08c-40.86,0-69.94-31.01-69.94-71.88
	c0-40.86,29.08-71.88,69.94-71.88c7.59,0,14.77,1.07,21.43,3.08v-92.2c-7.01-0.89-14.15-1.4-21.43-1.4
	c-90.86,0-162.41,71.55-162.41,162.4s71.55,161.56,162.41,161.56c7.28,0,14.43-0.5,21.43-1.39V568.72z M388.03,341.4v95.98
	c20.95,12.16,34.05,35.12,34.05,62.53c0,27.41-13.1,50.38-34.05,62.53v95.18c73.11-15.82,126.52-79.22,126.52-157.71
	S461.14,357.4,388.03,341.4z M146.21,0.02l0.13,154.87L95.85,38.3v175.44l46.29,109.2h86.32V0.02H146.21z M1.25,0.02v322.93h79.83
	V0.02H1.25z M841.58,138.46L799.03,0.02H689.75l-53.22,227.82L608.89,0.02h-89.74l45.68,323.04l125.39-0.04l56.85-220.51
	l64.65,220.44h1.05L841.58,138.46z M878.56,0.02l-51.1,322.93h80.91L966.59,0.02H878.56z M881.23,990.79h3.88
	c0.27,2.18,1.15,4,4.82,4c2.4,0,4.1-1.33,4.1-3.34c0-2-1-2.76-4.52-3.34c-5.19-0.7-7.64-2.28-7.64-6.34c0-3.55,3.03-6.22,7.55-6.22
	c4.67,0,7.46,2.12,7.89,6.28h-3.7c-0.39-2.28-1.7-3.25-4.19-3.25c-2.46,0-3.73,1.18-3.73,2.85c0,1.76,0.73,2.64,4.49,3.18
	c5.1,0.7,7.74,2.15,7.74,6.49c0,3.76-3.19,6.7-7.98,6.7C884.02,997.83,881.54,994.88,881.23,990.79z M901.83,975.83h5.4l5.7,14.8
	l5.58-14.8h5.34v21.69h-4.04v-16.38l-6.46,16.38h-1.3l-6.58-16.38v16.38h-3.64V975.83z"/>
</svg>
